PERFORMER "Gui Boratto"
TITLE "Essential Mix (2009-03-28) [TALiON]"
FILE "01-gui_boratto_-_essential_mix-sat-03-27-2009-talion.mp3" MP3
  TRACK 01 AUDIO
    PERFORMER "Essential Mix"
    TITLE "Intro"
    INDEX 01 00:00:00
  TRACK 02 AUDIO
    PERFORMER "Billy D'Alessandro"
    TITLE "Acidburn (Gui Boratto Remix)"
    INDEX 01 02:04:62
  TRACK 03 AUDIO
    PERFORMER "Philip Flindt"
    TITLE "Forward (Gui Boratto Remix)"
    INDEX 01 09:56:53
  TRACK 04 AUDIO
    PERFORMER "Solee"
    TITLE "Impressed (Gui Boratto Remix)"
    INDEX 01 16:04:74
  TRACK 05 AUDIO
    PERFORMER "Adam Freeland"
    TITLE "ManCry (Gui Boratto's Remix)"
    INDEX 01 22:05:66
  TRACK 06 AUDIO
    PERFORMER "Gui Boratto"
    TITLE "Take My Breath Away"
    INDEX 01 28:45:13
  TRACK 07 AUDIO
    PERFORMER "Gui Boratto feat. Luciana Villanova"
    TITLE "No Turning Back"
    INDEX 01 35:16:74
  TRACK 08 AUDIO
    PERFORMER "Pet Shop Boys"
    TITLE "Love Etc (Gui Boratto Remix)"
    INDEX 01 41:55:51
  TRACK 09 AUDIO
    PERFORMER "Gui Boratto"
    TITLE "Haute Couture"
    INDEX 01 49:21:38
  TRACK 10 AUDIO
    PERFORMER "Gui Boratto"
    TITLE "Atomic Soda"
    INDEX 01 53:25:32
  TRACK 11 AUDIO
    PERFORMER "Gui Boratto"
    TITLE "Opus 17"
    INDEX 01 60:45:32
  TRACK 12 AUDIO
    PERFORMER "Robert Babicz"
    TITLE "Sin (Gui Boratto Remix)"
    INDEX 01 67:05:53
  TRACK 13 AUDIO
    PERFORMER "Gui Boratto"
    TITLE "Ballroom"
    INDEX 01 74:01:57
  TRACK 14 AUDIO
    PERFORMER "Gui Boratto"
    TITLE "Eggplant"
    INDEX 01 81:53:74
  TRACK 15 AUDIO
    PERFORMER "Gui Boratto"
    TITLE "Golden Axe"
    INDEX 01 89:20:03
  TRACK 16 AUDIO
    PERFORMER "Sam Taylor Wood & Pet Shop Boys"
    TITLE "I'm In Love With A German Film Star (Gui Boratto Mix)"
    INDEX 01 94:27:00
  TRACK 17 AUDIO
    PERFORMER "Gui Boratto"
    TITLE "Arquipelago"
    INDEX 01 100:35:56
  TRACK 18 AUDIO
    PERFORMER "Bomb The Bass feat. Mark Lanegan"
    TITLE "Black River (Gui Boratto Remix)"
    INDEX 01 106:59:61
  TRACK 19 AUDIO
    PERFORMER "Gui Boratto feat. Luciana Villanova"
    TITLE "I Feel Love"
    INDEX 01 113:23:71